<mxfile host="app.diagrams.net" modified="2023-05-01T06:28:34.825Z" agent="Mozilla/5.0 (X11; Linux x86_64) AppleWebKit/537.36 (KHTML, like Gecko) Chrome/112.0.0.0 Safari/537.36" etag="d6euj3Y3n5y12lqDnX_r" version="21.2.3" type="device">
  <diagram name="Halaman-1" id="rIod7uRq-dLsEZnS0205">
    <mxGraphModel dx="868" dy="487" grid="1" gridSize="10" guides="1" tooltips="1" connect="1" arrows="1" fold="1" page="1" pageScale="1" pageWidth="827" pageHeight="1169" math="0" shadow="0">
      <root>
        <mxCell id="0" />
        <mxCell id="1" parent="0" />
        <mxCell id="OfKDhgks3roxHSn4_60G-1" value="&lt;font style=&quot;font-size: 13px;&quot;&gt;Instrumented&lt;br&gt;software&lt;/font&gt;" style="sketch=0;html=1;verticalAlign=top;labelPosition=center;verticalLabelPosition=bottom;align=center;spacingTop=-6;fontSize=11;fontStyle=1;fontColor=#999999;shape=image;aspect=fixed;imageAspect=0;image=data:image/svg+xml,PHN2ZyB4bWxucz0iaHR0cDovL3d3dy53My5vcmcvMjAwMC9zdmciIHhtbG5zOnY9Imh0dHBzOi8vdmVjdGEuaW8vbmFubyIgd2lkdGg9IjM4My41NTc5Nzc2MjM2MzQ3IiBoZWlnaHQ9IjI1Mi40NzIyMzIwMDk5MzQwNiIgdmlld0JveD0iMCAwIDEwMS40ODI5OTQwNzk1ODk4NCA2Ni44MDAwMDMwNTE3NTc4MSI+JiN4YTs8c3R5bGUgdHlwZT0idGV4dC9jc3MiPiYjeGE7CS5zdDB7ZmlsbDojNDI4NWY0O30mI3hhOwkuc3Qxe2ZpbGw6IzY2OWRmNjt9JiN4YTsJLnN0MntmaWxsOiNhZWNiZmE7fSYjeGE7PC9zdHlsZT4mI3hhOwk8cGF0aCBjbGFzcz0ic3QwIiBkPSJNNjguMTQgMzUuMTUzbDE1LjgyNCAxNS44MjRMNjguMTQgNjYuOCA1Mi4zMTYgNTAuOTc3em0tMzUuMDk0IDBMNDguODcgNTAuOTc3IDMzLjA0NiA2Ni44IDE3LjIyMiA1MC45Nzd6Ii8+JiN4YTsJPHBhdGggY2xhc3M9InN0MSIgZD0iTTg1LjY1OSAxNy42MzNsMTUuODI0IDE1LjgyNC0xNS44MjQgMTUuODI0LTE1LjgyNC0xNS44MjR6bS02OS44MzUgMGwxNS44MjQgMTUuODI0LTE1LjgyNCAxNS44MjRMMCAzMy40NTd6Ii8+JiN4YTsJPHBhdGggY2xhc3M9InN0MiIgZD0iTTY4LjE0IDBsMTUuODI0IDE1LjgyNEw2OC4xNCAzMS42NDcgNTIuMzE2IDE1LjgyM3pNMzMuMDQ2IDBMNDguODcgMTUuODIzIDMzLjA0NiAzMS42NDcgMTcuMjIyIDE1LjgyM3oiLz4mI3hhOzwvc3ZnPg==;" parent="1" vertex="1">
          <mxGeometry x="50" y="60" width="93.33" height="60" as="geometry" />
        </mxCell>
        <mxCell id="OfKDhgks3roxHSn4_60G-4" value="Telemetry data::&lt;br&gt;&lt;ul&gt;&lt;li&gt;Traces&lt;/li&gt;&lt;li&gt;Metrics&lt;/li&gt;&lt;li&gt;Logs&lt;/li&gt;&lt;/ul&gt;" style="html=1;verticalLabelPosition=bottom;align=left;labelBackgroundColor=#ffffff;verticalAlign=top;strokeWidth=2;strokeColor=#0080F0;shadow=0;dashed=0;shape=mxgraph.ios7.icons.data;" parent="1" vertex="1">
          <mxGeometry x="230" y="50.44999999999999" width="64" height="79.1" as="geometry" />
        </mxCell>
        <mxCell id="OfKDhgks3roxHSn4_60G-5" value="" style="shape=flexArrow;endArrow=classic;html=1;rounded=0;fillColor=#dae8fc;strokeColor=#6c8ebf;" parent="1" edge="1">
          <mxGeometry width="50" height="50" relative="1" as="geometry">
            <mxPoint x="150" y="89.5" as="sourcePoint" />
            <mxPoint x="220" y="89.5" as="targetPoint" />
          </mxGeometry>
        </mxCell>
        <mxCell id="OfKDhgks3roxHSn4_60G-6" value="Emits" style="text;html=1;strokeColor=none;fillColor=none;align=center;verticalAlign=middle;whiteSpace=wrap;rounded=0;" parent="1" vertex="1">
          <mxGeometry x="150" y="50.44999999999999" width="60" height="30" as="geometry" />
        </mxCell>
        <mxCell id="OfKDhgks3roxHSn4_60G-7" value="" style="shape=flexArrow;endArrow=classic;html=1;rounded=0;fillColor=#dae8fc;strokeColor=#6c8ebf;" parent="1" edge="1">
          <mxGeometry width="50" height="50" relative="1" as="geometry">
            <mxPoint x="310" y="89.5" as="sourcePoint" />
            <mxPoint x="370" y="90" as="targetPoint" />
          </mxGeometry>
        </mxCell>
        <mxCell id="OfKDhgks3roxHSn4_60G-21" value="" style="group" parent="1" vertex="1" connectable="0">
          <mxGeometry x="380" y="30" width="340" height="180" as="geometry" />
        </mxCell>
        <mxCell id="OfKDhgks3roxHSn4_60G-11" value="Collector&lt;br&gt;&lt;br&gt;&lt;br&gt;&lt;br&gt;&lt;br&gt;" style="rounded=1;whiteSpace=wrap;html=1;" parent="OfKDhgks3roxHSn4_60G-21" vertex="1">
          <mxGeometry width="340" height="120" as="geometry" />
        </mxCell>
        <mxCell id="OfKDhgks3roxHSn4_60G-12" value="A" style="html=1;dropTarget=0;whiteSpace=wrap;" parent="OfKDhgks3roxHSn4_60G-21" vertex="1">
          <mxGeometry x="10" y="50" width="70" height="50" as="geometry" />
        </mxCell>
        <mxCell id="OfKDhgks3roxHSn4_60G-13" value="" style="shape=module;jettyWidth=8;jettyHeight=4;" parent="OfKDhgks3roxHSn4_60G-12" vertex="1">
          <mxGeometry x="1" width="20" height="20" relative="1" as="geometry">
            <mxPoint x="-27" y="7" as="offset" />
          </mxGeometry>
        </mxCell>
        <mxCell id="OfKDhgks3roxHSn4_60G-14" value="B" style="html=1;dropTarget=0;whiteSpace=wrap;" parent="OfKDhgks3roxHSn4_60G-21" vertex="1">
          <mxGeometry x="130" y="50" width="70" height="50" as="geometry" />
        </mxCell>
        <mxCell id="OfKDhgks3roxHSn4_60G-15" value="" style="shape=module;jettyWidth=8;jettyHeight=4;" parent="OfKDhgks3roxHSn4_60G-14" vertex="1">
          <mxGeometry x="1" width="20" height="20" relative="1" as="geometry">
            <mxPoint x="-27" y="7" as="offset" />
          </mxGeometry>
        </mxCell>
        <mxCell id="OfKDhgks3roxHSn4_60G-16" value="C" style="html=1;dropTarget=0;whiteSpace=wrap;" parent="OfKDhgks3roxHSn4_60G-21" vertex="1">
          <mxGeometry x="250" y="50" width="70" height="50" as="geometry" />
        </mxCell>
        <mxCell id="OfKDhgks3roxHSn4_60G-17" value="" style="shape=module;jettyWidth=8;jettyHeight=4;" parent="OfKDhgks3roxHSn4_60G-16" vertex="1">
          <mxGeometry x="1" width="20" height="20" relative="1" as="geometry">
            <mxPoint x="-27" y="7" as="offset" />
          </mxGeometry>
        </mxCell>
        <mxCell id="OfKDhgks3roxHSn4_60G-18" value="" style="shape=flexArrow;endArrow=classic;html=1;rounded=0;fillColor=#d5e8d4;strokeColor=#82b366;" parent="OfKDhgks3roxHSn4_60G-21" edge="1">
          <mxGeometry width="50" height="50" relative="1" as="geometry">
            <mxPoint x="80" y="74.5" as="sourcePoint" />
            <mxPoint x="130" y="75" as="targetPoint" />
          </mxGeometry>
        </mxCell>
        <mxCell id="OfKDhgks3roxHSn4_60G-19" value="" style="shape=flexArrow;endArrow=classic;html=1;rounded=0;fillColor=#d5e8d4;strokeColor=#82b366;" parent="OfKDhgks3roxHSn4_60G-21" edge="1">
          <mxGeometry width="50" height="50" relative="1" as="geometry">
            <mxPoint x="200" y="74.5" as="sourcePoint" />
            <mxPoint x="250" y="75" as="targetPoint" />
          </mxGeometry>
        </mxCell>
        <mxCell id="OfKDhgks3roxHSn4_60G-20" value="A: Receivers&lt;br&gt;B: Processors&lt;br&gt;C: Exporters" style="text;html=1;strokeColor=none;fillColor=none;align=left;verticalAlign=middle;whiteSpace=wrap;rounded=0;" parent="OfKDhgks3roxHSn4_60G-21" vertex="1">
          <mxGeometry x="10" y="120" width="90" height="60" as="geometry" />
        </mxCell>
        <mxCell id="OfKDhgks3roxHSn4_60G-23" value="" style="shape=flexArrow;endArrow=classic;html=1;rounded=0;fillColor=#dae8fc;strokeColor=#6c8ebf;" parent="OfKDhgks3roxHSn4_60G-21" edge="1">
          <mxGeometry width="50" height="50" relative="1" as="geometry">
            <mxPoint x="169.5" y="120" as="sourcePoint" />
            <mxPoint x="169.5" y="180" as="targetPoint" />
          </mxGeometry>
        </mxCell>
        <mxCell id="OfKDhgks3roxHSn4_60G-22" value="Backend" style="image;aspect=fixed;perimeter=ellipsePerimeter;html=1;align=center;shadow=0;dashed=0;fontColor=#4277BB;labelBackgroundColor=default;fontSize=12;spacingTop=3;image=img/lib/ibm/infrastructure/mobile_backend.svg;" parent="1" vertex="1">
          <mxGeometry x="520" y="230" width="60" height="60" as="geometry" />
        </mxCell>
        <mxCell id="OfKDhgks3roxHSn4_60G-24" value="&lt;ul&gt;&lt;li&gt;Zipkin&lt;/li&gt;&lt;li&gt;Prometheus&lt;/li&gt;&lt;li&gt;Jaeger&lt;/li&gt;&lt;li&gt;... etc&lt;/li&gt;&lt;/ul&gt;" style="text;html=1;strokeColor=none;fillColor=none;align=left;verticalAlign=middle;whiteSpace=wrap;rounded=0;" parent="1" vertex="1">
          <mxGeometry x="560" y="230" width="80" height="60" as="geometry" />
        </mxCell>
      </root>
    </mxGraphModel>
  </diagram>
</mxfile>
